<?xml version="1.0" encoding="UTF-8" standalone="no"?>
<!DOCTYPE svg PUBLIC "-//W3C//DTD SVG 1.1//EN" "http://www.w3.org/Graphics/SVG/1.1/DTD/svg11.dtd">
<svg width="100%" height="100%" viewBox="0 0 1328 323" version="1.1" xmlns="http://www.w3.org/2000/svg" xmlns:xlink="http://www.w3.org/1999/xlink" xml:space="preserve" xmlns:serif="http://www.serif.com/" style="fill-rule:evenodd;clip-rule:evenodd;stroke-linejoin:round;stroke-miterlimit:2;">
    <g id="Artboard1" transform="matrix(1,0,0,1,463.128,0)">
        <rect x="-463.128" y="0" width="1327.49" height="322.453" style="fill:none;"/>
        <g transform="matrix(1,0,0,1,-994.97,-400.837)">
            <path d="M1177.31,495.803C1177.31,495.803 1164.78,488.846 1159.79,470.66C1155.16,453.825 1157.31,441.806 1157.31,441.806C1154.12,447.437 1150.9,457.686 1150.2,466.086C1148.68,464.137 1146.87,461.572 1146.03,458.017C1145.15,458.115 1139.49,490.733 1157.15,491.591C1169.61,492.196 1176.36,494.994 1177.31,495.803Z" style="fill:rgb(222,65,74);"/>
            <g transform="matrix(0.992336,0.123571,-0.123571,0.992336,33.206,-164.715)">
                <path d="M1240.14,435.605C1240.14,435.605 1209.98,462.167 1255.29,498.995C1281.22,520.076 1268.14,563.61 1269.69,561.877C1269.69,561.877 1286.31,542.61 1283.26,519.035C1279.87,492.82 1258.85,484.725 1250.5,476.821C1232.99,460.252 1240.14,435.605 1240.14,435.605Z" style="fill:rgb(222,65,74);"/>
            </g>
            <g transform="matrix(174.658,0,0,174.658,1145.81,635.656)">
                <path d="M0.244,-0.481L0.195,-0.593C0.179,-0.63 0.162,-0.655 0.145,-0.667C0.128,-0.68 0.102,-0.687 0.068,-0.687L0.054,-0.687L0.054,-0.771L0.072,-0.771C0.135,-0.771 0.18,-0.762 0.207,-0.743C0.234,-0.724 0.261,-0.682 0.289,-0.618L0.463,-0.221C0.496,-0.146 0.534,-0.073 0.578,-0L0.469,-0C0.437,-0.053 0.407,-0.111 0.379,-0.175L0.289,-0.379L0.115,-0L0.022,-0L0.244,-0.481Z" style="fill-rule:nonzero;"/>
            </g>
            <g transform="matrix(1,0,0,1,-23.4581,-25.7427)">
                <path d="M1225.16,426.58C1221.73,426.821 1159.12,469.217 1208.96,519.253C1233.81,544.196 1241.96,579.484 1241.96,579.484C1240.03,573.704 1258.23,546.657 1232.23,517.257C1200.02,480.832 1206.13,467.097 1225.16,426.58Z" style="fill:rgb(222,65,74);"/>
            </g>
        </g>
        <g transform="matrix(1,0,0,1,-1419.5,132.343)">
            <g transform="matrix(64,0,0,64,1485.72,189.471)">
                <path d="M0.085,-0L0.085,-0.082L0.28,-0.082L0.28,-0.468L0.11,-0.468L0.11,-0.55L0.37,-0.55L0.37,-0.082L0.555,-0.082L0.555,-0L0.085,-0ZM0.315,-0.649C0.293,-0.649 0.276,-0.655 0.263,-0.666C0.25,-0.677 0.244,-0.693 0.244,-0.712C0.244,-0.732 0.25,-0.748 0.263,-0.76C0.276,-0.771 0.293,-0.777 0.315,-0.777C0.337,-0.777 0.354,-0.771 0.367,-0.76C0.38,-0.748 0.386,-0.732 0.386,-0.712C0.386,-0.693 0.38,-0.677 0.367,-0.666C0.354,-0.655 0.337,-0.649 0.315,-0.649Z" style="fill:rgb(222,65,74);fill-rule:nonzero;"/>
            </g>
            <g transform="matrix(64,0,0,64,1524.12,189.471)">
                <path d="M0.092,-0L0.092,-0.55L0.182,-0.55L0.182,-0.445L0.183,-0.445C0.188,-0.482 0.203,-0.51 0.228,-0.53C0.253,-0.55 0.287,-0.56 0.329,-0.56C0.384,-0.56 0.428,-0.543 0.461,-0.509C0.494,-0.475 0.51,-0.429 0.51,-0.37L0.51,-0L0.42,-0L0.42,-0.36C0.42,-0.399 0.409,-0.43 0.389,-0.451C0.368,-0.471 0.339,-0.482 0.303,-0.482C0.266,-0.482 0.236,-0.471 0.215,-0.448C0.193,-0.425 0.182,-0.393 0.182,-0.35L0.182,-0L0.092,-0Z" style="fill:rgb(222,65,74);fill-rule:nonzero;"/>
            </g>
            <g transform="matrix(64,0,0,64,1562.52,189.471)">
                <path d="M0.22,-0L0.22,-0.413L0.06,-0.413L0.06,-0.495L0.22,-0.495L0.22,-0.59C0.22,-0.633 0.234,-0.668 0.261,-0.693C0.288,-0.717 0.326,-0.73 0.374,-0.73L0.535,-0.73L0.535,-0.648L0.374,-0.648C0.331,-0.648 0.31,-0.629 0.31,-0.59L0.31,-0.495L0.535,-0.495L0.535,-0.413L0.31,-0.413L0.31,-0L0.22,-0Z" style="fill:rgb(222,65,74);fill-rule:nonzero;"/>
            </g>
            <g transform="matrix(64,0,0,64,1600.92,189.471)">
                <path d="M0.3,0.01C0.257,0.01 0.219,0.001 0.187,-0.016C0.154,-0.033 0.129,-0.058 0.112,-0.09C0.094,-0.121 0.085,-0.158 0.085,-0.2L0.085,-0.35C0.085,-0.393 0.094,-0.43 0.112,-0.461C0.129,-0.492 0.154,-0.517 0.187,-0.534C0.219,-0.551 0.257,-0.56 0.3,-0.56C0.343,-0.56 0.381,-0.551 0.414,-0.534C0.446,-0.517 0.471,-0.492 0.489,-0.461C0.506,-0.43 0.515,-0.393 0.515,-0.35L0.515,-0.253L0.173,-0.253L0.173,-0.2C0.173,-0.157 0.184,-0.124 0.206,-0.101C0.228,-0.078 0.259,-0.066 0.3,-0.066C0.335,-0.066 0.363,-0.072 0.384,-0.085C0.405,-0.097 0.418,-0.115 0.423,-0.14L0.513,-0.14C0.507,-0.094 0.485,-0.058 0.446,-0.031C0.407,-0.003 0.358,0.01 0.3,0.01ZM0.173,-0.321L0.427,-0.321L0.427,-0.35C0.427,-0.393 0.416,-0.427 0.395,-0.45C0.373,-0.473 0.341,-0.485 0.3,-0.485C0.259,-0.485 0.228,-0.473 0.206,-0.45C0.184,-0.427 0.173,-0.393 0.173,-0.35L0.173,-0.321Z" style="fill:rgb(222,65,74);fill-rule:nonzero;"/>
            </g>
            <g transform="matrix(64,0,0,64,1639.32,189.471)">
                <path d="M0.111,-0L0.111,-0.55L0.199,-0.55L0.199,-0.452C0.217,-0.524 0.265,-0.56 0.344,-0.56C0.402,-0.56 0.448,-0.542 0.483,-0.506C0.517,-0.469 0.534,-0.42 0.534,-0.358L0.534,-0.325L0.444,-0.325L0.444,-0.35C0.444,-0.393 0.434,-0.427 0.413,-0.45C0.392,-0.472 0.362,-0.484 0.323,-0.484C0.285,-0.484 0.255,-0.472 0.234,-0.449C0.212,-0.426 0.201,-0.393 0.201,-0.35L0.201,-0L0.111,-0Z" style="fill:rgb(222,65,74);fill-rule:nonzero;"/>
            </g>
            <g transform="matrix(64,0,0,64,1677.72,189.471)">
                <path d="M0.092,-0L0.092,-0.55L0.182,-0.55L0.182,-0.445L0.183,-0.445C0.188,-0.482 0.203,-0.51 0.228,-0.53C0.253,-0.55 0.287,-0.56 0.329,-0.56C0.384,-0.56 0.428,-0.543 0.461,-0.509C0.494,-0.475 0.51,-0.429 0.51,-0.37L0.51,-0L0.42,-0L0.42,-0.36C0.42,-0.399 0.409,-0.43 0.389,-0.451C0.368,-0.471 0.339,-0.482 0.303,-0.482C0.266,-0.482 0.236,-0.471 0.215,-0.448C0.193,-0.425 0.182,-0.393 0.182,-0.35L0.182,-0L0.092,-0Z" style="fill:rgb(222,65,74);fill-rule:nonzero;"/>
            </g>
            <g transform="matrix(64,0,0,64,1716.12,189.471)">
                <path d="M0.3,0.008C0.233,0.008 0.181,-0.011 0.143,-0.049C0.104,-0.086 0.085,-0.137 0.085,-0.202L0.085,-0.348C0.085,-0.413 0.104,-0.465 0.143,-0.502C0.181,-0.539 0.233,-0.558 0.3,-0.558C0.367,-0.558 0.419,-0.539 0.458,-0.502C0.496,-0.465 0.515,-0.414 0.515,-0.349L0.515,-0.202C0.515,-0.137 0.496,-0.086 0.458,-0.049C0.419,-0.011 0.367,0.008 0.3,0.008ZM0.3,-0.072C0.339,-0.072 0.37,-0.083 0.392,-0.105C0.414,-0.127 0.425,-0.159 0.425,-0.202L0.425,-0.348C0.425,-0.391 0.414,-0.423 0.392,-0.445C0.37,-0.467 0.339,-0.478 0.3,-0.478C0.261,-0.478 0.231,-0.467 0.209,-0.445C0.186,-0.423 0.175,-0.391 0.175,-0.348L0.175,-0.202C0.175,-0.159 0.186,-0.127 0.209,-0.105C0.231,-0.083 0.261,-0.072 0.3,-0.072Z" style="fill:rgb(222,65,74);fill-rule:nonzero;"/>
            </g>
        </g>
    </g>
</svg>
